Coordinates
version=1
nRows=7
nColumns=63
inDegrees=yes

Units are S.I. units (second, meters, Newtons, ...)
If the header above contains a line with 'inDegrees', this indicates whether rotational values are in degrees (yes) or radians (no).

endheader
time	pelvis_tilt	pelvis_list	pelvis_rotation	pelvis_tx	pelvis_ty	pelvis_tz	hip_flexion_r	hip_adduction_r	hip_rotation_r	knee_angle_r	knee_angle_r_beta	ankle_angle_r	subtalar_angle_r	mtp_angle_r	hip_flexion_l	hip_adduction_l	hip_rotation_l	knee_angle_l	knee_angle_l_beta	ankle_angle_l	subtalar_angle_l	mtp_angle_l	L5_S1_Flex_Ext	L5_S1_Lat_Bending	L5_S1_axial_rotation	L4_L5_Flex_Ext	L4_L5_Lat_Bending	L4_L5_axial_rotation	L3_L4_Flex_Ext	L3_L4_Lat_Bending	L3_L4_axial_rotation	L2_L3_Flex_Ext	L2_L3_Lat_Bending	L2_L3_axial_rotation	L1_L2_Flex_Ext	L1_L2_Lat_Bending	L1_L2_axial_rotation	L1_T12_Flex_Ext	L1_T12_Lat_Bending	L1_T12_axial_rotation	Abs_r3	Abs_r2	Abs_r1	Abs_t1	Abs_t2	neck_flexion	neck_bending	neck_rotation	arm_flex_r	arm_add_r	arm_rot_r	elbow_flex_r	pro_sup_r	wrist_flex_r	wrist_dev_r	arm_flex_l	arm_add_l	arm_rot_l	elbow_flex_l	pro_sup_l	wrist_flex_l	wrist_dev_l
      4.30508475	     -5.52594065	     -8.18215557	     60.23014333	      0.23336945	      0.87055162	      0.62107870	     10.24365140	     -3.63931340	     19.24315991	     12.94681003	      0.22596446	     31.80202200	     15.99266312	      0.00000000	      2.76714019	      4.26977770	     -3.54777089	      5.17251777	      0.09027747	     27.51092374	    -17.57711400	      0.00000000	     -0.42206198	      1.43173004	     -2.16765538	     -0.78381130	      1.90420096	     -2.30313384	     -0.69340562	      3.48110843	     -2.30313384	     -0.48237463	      3.48110843	     -1.89669845	     -0.39192675	      2.91958390	     -1.76121999	     -0.24116621	      2.21774984	     -1.62574153	     -3.01474650	     16.19601659	    -12.05584891	      0.00000000	      0.00000000	      6.35629838	      7.62797240	    -44.54358415	      6.03124736	    -19.57171145	     30.45172999	     25.62527207	     84.01885566	    -13.60087342	      3.16469020	     -4.49349393	    -13.60499520	     91.45996621	     25.00113513	     69.45632078	    -14.21584029	      3.19225939
      4.32203390	     -5.79185777	     -7.97739911	     58.89420295	      0.23515907	      0.87032364	      0.62125308	     10.43599976	     -3.76694466	     20.36563806	     13.06624922	      0.22804907	     31.95316122	     16.18222238	      0.00000000	      2.38269370	      4.61343420	     -4.45560448	      4.53946094	      0.07922854	     27.21252899	    -17.80825479	      0.00000000	     -0.45672862	      1.39740365	     -1.88866328	     -0.84819073	      1.85854685	     -2.00670473	     -0.75035946	      3.39764722	     -2.00670473	     -0.52199515	      3.39764722	     -1.65258037	     -0.42411820	      2.84958551	     -1.53453891	     -0.26097474	      2.16457825	     -1.41649746	     -3.26236690	     15.80770952	    -10.50417855	      0.00000000	      0.00000000	      6.75836793	      8.50604079	    -44.52933176	      4.62422777	    -19.47115954	     26.09546470	     26.43387695	     81.48466410	    -13.18394427	      4.68579617	     -3.88760972	    -13.87240267	     91.50016859	     24.88558161	     70.71274390	    -13.79595700	      3.54132223
      4.33898305	     -5.91656386	     -7.79063920	     58.20962927	      0.23645613	      0.87043165	      0.62114581	     10.38944403	     -3.87165300	     20.93594136	     13.01709627	      0.22719119	     31.95523244	     16.31829922	      0.00000000	      2.03439555	      4.81726102	     -4.76693907	      4.11209863	      0.07176966	     27.00294897	    -17.89697607	      0.00000000	     -0.48851092	      1.36715064	     -1.77638432	     -0.90721364	      1.81831035	     -1.88740834	     -0.80257460	      3.32409007	     -1.88740834	     -0.55831913	      3.32409007	     -1.55433628	     -0.45363124	      2.78789358	     -1.44331226	     -0.27913514	      2.11771634	     -1.33228824	     -3.48938467	     15.46548146	     -9.87971667	      0.00000000	      0.00000000	      6.17880445	      8.73046644	    -44.50588261	      4.21374881	    -19.46297708	     25.07268203	     26.32244027	     80.81690150	    -13.10350596	      5.46881281	     -3.49516682	    -14.22689987	     90.48612007	     24.65579976	     70.19150328	    -12.54922533	      3.61726027
      4.35593220	     -5.98428898	     -7.82241129	     57.80115060	      0.23737916	      0.87038757	      0.62124708	     10.50818801	     -3.80891293	     21.49874080	     13.04230701	      0.22763120	     31.86347484	     16.12273126	      0.00000000	      1.95640729	      4.84196612	     -4.98260524	      3.87364195	      0.06760781	     26.85640794	    -17.87762122	      0.00000000	     -0.49727319	      1.34784396	     -1.70401415	     -0.92348604	      1.79263247	     -1.81051504	     -0.81697012	      3.27714781	     -1.81051504	     -0.56833353	      3.27714781	     -1.49101238	     -0.46176788	      2.74852341	     -1.38451150	     -0.28414190	      2.08781030	     -1.27801061	     -3.55197267	     15.24708049	     -9.47721551	      0.00000000	      0.00000000	      5.52326067	      8.49946865	    -44.47834847	      3.79282247	    -19.45695773	     23.95234301	     26.26494714	     80.23813139	    -12.71524215	      5.57561393	     -3.34059046	    -14.75832345	     87.66812423	     24.63452976	     67.90873903	    -10.76336733	      3.47501060
      4.37288136	     -5.93878994	     -7.91795104	     57.80335562	      0.23749080	      0.87039535	      0.62149635	     10.56398915	     -3.68977030	     21.67783550	     13.00164816	      0.22692157	     31.74697979	     15.92244961	      0.00000000	      1.97008933	      4.74696606	     -4.90068757	      3.79073255	      0.06616076	     26.76699623	    -17.86819559	      0.00000000	     -0.50858550	      1.33808087	     -1.70818697	     -0.94449413	      1.77964756	     -1.81494866	     -0.83555512	      3.25340982	     -1.81494866	     -0.58126237	      3.25340982	     -1.49466360	     -0.47227249	      2.72861451	     -1.38790192	     -0.29060575	      2.07268727	     -1.28114023	     -3.63277536	     15.13663840	     -9.50042349	      0.00000000	      0.00000000	      4.80108354	      7.63509226	    -44.44234138	      3.65513608	    -19.59916735	     23.71217214	     26.02045679	     80.23708000	    -12.14648824	      5.16951451	     -3.21188393	    -15.24849713	     83.98729501	     24.48990574	     64.20839129	     -8.55220940	      2.80327112
      4.38983051	     -5.87265109	     -8.17712445	     58.20393993	      0.23681304	      0.87036070	      0.62193026	     10.70063049	     -3.51952993	     21.69768347	     12.88653218	      0.22491242	     31.56671957	     15.49052887	      0.00000000	      2.21602872	      4.55503463	     -4.62725781	      3.85047051	      0.06720339	     26.63504343	    -17.78655041	      0.00000000	     -0.49702316	      1.33421524	     -1.77088632	     -0.92302170	      1.77450627	     -1.88156671	     -0.81655934	      3.24401093	     -1.88156671	     -0.56804776	      3.24401093	     -1.54952553	     -0.46153570	      2.72073172	     -1.43884513	     -0.28399903	      2.06669941	     -1.32816474	     -3.55018670	     15.09290963	     -9.84913843	      0.00000000	      0.00000000	      4.75261397	      6.93078989	    -44.39047096	      3.89480681	    -19.98454385	     25.31446392	     25.36532666	     80.32198010	    -11.62213353	      4.43317862	     -2.13022897	    -15.52789360	     86.04128911	     24.15000731	     49.18275243	     -7.36450577	      1.07209550
      4.40677966	     -5.75711104	     -8.38895726	     58.72425246	      0.23594645	      0.87010933	      0.62236225	     10.82234676	     -3.33951065	     21.55724543	     12.88903294	      0.22495606	     31.59905040	     15.19032486	      0.00000000	      2.43806821	      4.35122895	     -4.31822342	      4.00678309	      0.06993156	     26.58971732	    -17.75329432	      0.00000000	     -0.49340842	      1.32852652	     -1.85993320	     -0.91630878	      1.76694027	     -1.97617903	     -0.81062070	      3.23017938	     -1.97617903	     -0.56391648	      3.23017938	     -1.62744155	     -0.45817906	      2.70913128	     -1.51119573	     -0.28193357	      2.05788758	     -1.39494990	     -3.52436701	     15.02855770	    -10.34439048	      0.00000000	      0.00000000	      4.93106941	      6.01448788	    -44.36650406	      4.06943349	    -20.24161683	     25.92928189	     24.73605512	     80.61906986	    -10.41428007	      3.41376755	     -1.89873967	    -15.93318833	     81.72092027	     24.23981335	     44.11619712	     -6.46579465	      0.56107102
